<?xml version="1.0" standalone="no"?>
<!DOCTYPE svg PUBLIC "-//W3C//DTD SVG 20010904//EN"
 "http://www.w3.org/TR/2001/REC-SVG-20010904/DTD/svg10.dtd">
<svg version="1.0" xmlns="http://www.w3.org/2000/svg"
 width="464.000000pt" height="464.000000pt" viewBox="0 0 464.000000 464.000000"
 preserveAspectRatio="xMidYMid meet">
<metadata>
Created by potrace 1.14, written by Peter Selinger 2001-2017
</metadata>
<g transform="translate(0.000000,464.000000) scale(0.100000,-0.100000)"
fill="#000000" stroke="none">
<path d="M760 4237 c-30 -19 -32 -22 -15 -25 41 -8 45 -20 45 -135 0 -89 -3
-114 -17 -129 -15 -17 -14 -18 42 -18 55 0 57 1 42 18 -13 14 -17 46 -19 162
-3 137 -4 145 -23 147 -11 1 -36 -8 -55 -20z"/>
<path d="M1156 4229 c27 -28 29 -37 32 -120 3 -73 1 -96 -16 -129 -21 -44 -18
-48 16 -24 48 33 72 129 52 204 -14 50 -59 100 -91 100 -22 0 -22 -1 7 -31z"/>
<path d="M1370 4237 c-29 -19 -32 -22 -15 -25 41 -8 45 -21 45 -131 0 -80 -4
-112 -16 -129 -15 -22 -15 -22 35 -22 47 0 64 10 41 25 -6 4 -10 61 -10 140 0
73 -3 140 -6 149 -8 22 -33 20 -74 -7z"/>
<path d="M1764 4230 c31 -37 40 -80 34 -165 -3 -47 -10 -73 -26 -95 -23 -31
-16 -38 19 -20 52 28 77 166 45 244 -15 37 -50 66 -79 66 -17 0 -16 -3 7 -30z"/>
<path d="M1975 4238 l-40 -21 33 -9 32 -9 0 -116 c0 -94 -3 -120 -17 -135 -15
-17 -14 -18 42 -18 52 0 56 1 44 16 -10 12 -15 60 -19 163 -6 164 -7 166 -75
129z"/>
<path d="M2363 4236 c51 -48 61 -188 18 -261 -25 -43 -7 -48 31 -7 70 74 58
246 -19 281 -44 20 -59 14 -30 -13z"/>
<path d="M2580 4237 c-30 -19 -32 -22 -15 -25 41 -8 45 -20 45 -135 0 -89 -3
-114 -17 -129 -15 -17 -14 -18 42 -18 55 0 57 1 42 18 -13 14 -17 46 -19 162
-3 137 -4 145 -23 147 -11 1 -36 -8 -55 -20z"/>
<path d="M2976 4229 c27 -28 29 -37 32 -120 3 -75 1 -95 -17 -129 -22 -43 -18
-49 17 -24 37 26 56 73 56 144 0 93 -41 160 -98 160 -18 0 -16 -3 10 -31z"/>
<path d="M3190 4237 c-29 -18 -32 -22 -15 -25 37 -7 45 -31 45 -137 0 -75 -4
-106 -16 -123 -15 -22 -15 -22 42 -22 55 0 56 1 41 18 -14 15 -17 42 -17 149
0 72 -3 138 -6 147 -8 22 -33 20 -74 -7z"/>
<path d="M3578 4237 c46 -49 58 -182 22 -252 -23 -44 -21 -52 9 -33 35 21 61
87 61 152 0 88 -41 156 -94 156 -19 0 -19 -1 2 -23z"/>
<path d="M3795 4238 l-40 -21 33 -9 32 -9 0 -116 c0 -94 -3 -120 -17 -135 -15
-17 -14 -18 42 -18 52 0 56 1 44 16 -10 12 -15 60 -19 163 -6 164 -7 166 -75
129z"/>
<path d="M1025 4228 c-72 -57 -75 -211 -4 -277 12 -11 31 -21 41 -21 15 0 15
4 -7 36 -30 44 -39 87 -33 164 3 41 11 70 26 90 26 35 16 39 -23 8z"/>
<path d="M1620 4220 c-59 -63 -59 -203 0 -262 16 -15 39 -28 51 -28 l22 0 -20
23 c-36 39 -43 64 -43 144 0 59 5 87 20 116 24 45 9 49 -30 7z"/>
<path d="M2241 4234 c-32 -23 -61 -90 -61 -144 0 -80 52 -160 104 -160 17 0
16 3 -7 24 -33 31 -42 63 -42 151 0 54 5 78 22 108 24 40 20 46 -16 21z"/>
<path d="M2845 4228 c-36 -28 -55 -76 -55 -137 0 -67 25 -128 61 -146 44 -23
53 -18 25 15 -45 54 -49 204 -7 260 25 35 15 39 -24 8z"/>
<path d="M3440 4220 c-39 -42 -54 -108 -39 -178 13 -62 53 -112 90 -112 l22 0
-20 23 c-36 39 -44 66 -45 143 0 56 5 84 21 114 25 47 11 52 -29 10z"/>
<path d="M1130 3881 c0 -34 16 -62 115 -202 87 -124 112 -166 103 -176 -8 -10
-7 -13 4 -13 8 0 22 -8 31 -18 24 -26 24 -207 1 -240 -15 -22 -15 -22 35 -22
51 0 61 6 41 26 -6 6 -10 40 -8 77 l3 67 97 -138 c449 -634 448 -633 448 -678
0 -24 -4 -46 -10 -49 -23 -14 -7 -24 43 -27 l52 -3 81 -115 82 -114 -46 -61
c-75 -99 -92 -115 -113 -105 -10 6 -26 10 -35 10 -15 0 -15 -3 4 -23 12 -13
22 -27 22 -32 0 -19 -135 -184 -143 -176 -5 5 -8 43 -5 85 2 58 8 82 26 105
26 36 16 40 -23 9 -52 -41 -69 -126 -44 -220 l12 -43 -168 -220 c-201 -264
-202 -266 -218 -244 -16 20 -51 39 -74 39 -16 0 -16 -2 3 -18 25 -20 44 -53
44 -78 0 -9 -30 -57 -67 -106 -59 -80 -68 -88 -79 -73 -17 23 -28 116 -19 162
3 21 15 53 25 71 21 36 16 40 -19 16 -32 -23 -61 -90 -61 -142 0 -46 21 -105
47 -134 15 -17 9 -27 -85 -151 -91 -120 -102 -138 -102 -176 l0 -41 1120 0
1120 0 5 22 c2 13 20 148 40 302 19 153 38 282 41 287 8 13 38 11 52 -3 8 -8
12 -50 12 -122 0 -88 -3 -113 -17 -128 -15 -17 -14 -18 42 -18 56 0 57 1 42
18 -14 15 -17 42 -17 161 0 162 -4 169 -71 132 l-39 -22 0 33 c0 18 9 94 19
168 10 74 16 138 12 142 -3 3 -22 9 -41 13 l-35 6 -23 -83 c-33 -118 -91 -232
-120 -236 -19 -3 -21 -6 -11 -18 10 -12 5 -22 -27 -55 -21 -22 -52 -47 -67
-56 l-29 -15 7 34 c4 18 15 48 26 66 20 36 15 40 -20 16 -26 -18 -60 -87 -61
-121 0 -16 -11 -25 -47 -37 -84 -29 -83 -29 -83 79 0 111 -7 119 -70 84 l-42
-24 31 -8 31 -8 0 -74 c0 -40 -3 -76 -7 -78 -5 -3 -37 -6 -73 -8 l-65 -4 -5
75 c-8 97 -41 150 -95 150 -14 0 -12 -6 9 -30 29 -35 39 -75 34 -145 l-3 -50
-80 0 -80 0 -3 69 c-2 53 1 77 17 107 25 47 10 51 -29 9 -29 -31 -51 -107 -47
-160 2 -24 -1 -25 -60 -28 l-63 -3 0 103 c0 57 -4 109 -9 117 -11 17 -46 9
-81 -19 -25 -19 -25 -20 -3 -20 32 0 44 -32 41 -108 l-3 -67 -74 0 -75 0 -1
65 c-3 94 -43 160 -99 160 -18 0 -17 -3 7 -28 33 -34 54 -133 37 -177 -10 -25
-12 -26 -87 -23 l-78 3 0 77 c0 64 4 81 23 107 26 36 16 40 -23 9 -37 -29 -55
-76 -55 -143 l0 -56 -62 3 -63 3 -3 79 c-2 58 1 84 13 102 8 13 83 112 167
221 84 109 199 260 256 335 57 76 108 135 113 132 5 -3 9 -51 9 -107 0 -77 -4
-108 -16 -125 -15 -22 -15 -22 42 -22 54 0 56 1 41 18 -12 14 -16 48 -18 171
l-3 153 134 177 c74 97 133 182 132 189 -2 8 10 12 34 12 35 0 36 1 21 18 -13
14 -17 46 -19 162 -3 164 -6 168 -74 128 -32 -19 -35 -23 -19 -26 41 -8 45
-20 45 -138 0 -68 -4 -114 -10 -114 -15 0 -107 129 -141 198 -17 34 -46 77
-65 94 -32 29 -160 206 -290 401 l-54 80 0 119 c0 136 -4 142 -72 107 l-43
-22 33 -9 c31 -8 32 -10 32 -64 0 -30 -4 -53 -8 -50 -5 3 -27 31 -49 63 -22
32 -75 108 -117 168 l-78 110 529 3 c507 3 623 -2 715 -28 53 -15 125 -68 161
-118 26 -36 29 -46 20 -62 -10 -15 -9 -19 11 -24 30 -7 36 -30 36 -141 0 -66
-4 -97 -16 -113 -15 -22 -14 -22 24 -22 43 0 52 -10 52 -61 0 -27 2 -29 40
-29 48 0 46 -18 26 235 -8 99 -20 267 -27 373 l-13 192 -1088 0 -1088 0 0 -39z
m566 -2717 c-6 -14 -66 -20 -66 -6 0 4 15 25 33 47 l32 40 3 -34 c2 -18 1 -39
-2 -47z"/>
<path d="M545 3516 c56 -56 60 -217 7 -278 -27 -32 11 -22 41 10 86 89 45 292
-58 292 -9 0 -6 -8 10 -24z"/>
<path d="M765 3518 c-33 -18 -36 -23 -20 -26 41 -8 45 -20 45 -135 0 -89 -3
-114 -17 -129 -15 -17 -14 -18 42 -18 55 0 57 1 42 18 -13 14 -17 46 -19 162
-3 163 -4 165 -73 128z"/>
<path d="M1152 3513 c33 -36 39 -58 39 -144 0 -50 -6 -83 -19 -110 -21 -43
-18 -47 16 -23 48 33 72 129 52 204 -14 50 -59 100 -91 100 l-23 0 26 -27z"/>
<path d="M2363 3516 c51 -48 61 -188 18 -261 -25 -43 -7 -48 31 -7 70 74 58
246 -19 281 -44 20 -59 14 -30 -13z"/>
<path d="M2585 3518 c-33 -18 -36 -23 -20 -26 41 -8 45 -20 45 -135 0 -89 -3
-114 -17 -129 -15 -17 -14 -18 35 -18 51 0 62 6 42 26 -5 5 -11 75 -12 154 -3
163 -4 165 -73 128z"/>
<path d="M2972 3513 c33 -36 39 -58 39 -144 0 -52 -6 -82 -20 -110 -22 -42
-18 -48 17 -23 37 26 56 73 56 144 0 93 -41 160 -98 160 -18 0 -18 -2 6 -27z"/>
<path d="M3573 3520 c49 -39 64 -182 27 -255 -23 -44 -21 -51 10 -35 33 18 60
86 60 153 0 93 -40 157 -99 157 l-24 0 26 -20z"/>
<path d="M3796 3517 l-38 -24 31 -6 31 -6 0 -120 c0 -69 -4 -122 -10 -126 -24
-15 -6 -25 41 -25 47 0 50 2 38 16 -10 12 -15 60 -19 163 -6 164 -8 168 -74
128z"/>
<path d="M4183 3516 c33 -31 42 -63 42 -151 0 -54 -5 -78 -22 -107 -28 -47 -7
-53 30 -8 36 42 50 94 44 156 -8 82 -49 134 -104 134 -12 0 -9 -6 10 -24z"/>
<path d="M410 3502 c-28 -29 -50 -86 -50 -132 0 -73 53 -160 99 -160 19 0 19
1 -5 27 -32 34 -39 62 -39 148 0 54 5 78 22 108 26 44 13 48 -27 9z"/>
<path d="M1025 3508 c-36 -28 -55 -76 -55 -137 0 -87 44 -161 96 -161 13 0 11
6 -10 30 -45 54 -48 205 -6 262 25 33 13 36 -25 6z"/>
<path d="M2241 3514 c-51 -36 -74 -134 -49 -216 13 -44 58 -88 90 -88 19 0 19
2 -6 27 -33 33 -41 61 -41 148 0 54 5 78 22 108 24 40 20 46 -16 21z"/>
<path d="M2845 3508 c-94 -74 -59 -298 47 -298 6 0 2 11 -10 23 -46 49 -58
182 -22 252 11 21 18 40 16 42 -1 2 -15 -7 -31 -19z"/>
<path d="M3442 3500 c-84 -83 -46 -290 52 -290 19 0 19 1 -1 23 -36 39 -44 66
-45 143 0 56 5 84 21 114 25 47 14 51 -27 10z"/>
<path d="M4053 3506 c-31 -26 -53 -82 -53 -136 0 -54 22 -110 53 -136 44 -37
61 -31 32 12 -43 63 -46 182 -5 251 23 39 13 42 -27 9z"/>
<path d="M156 2796 l-38 -23 29 -6 c37 -7 43 -25 43 -132 0 -52 -5 -90 -15
-109 -8 -15 -15 -30 -15 -32 0 -2 23 -4 51 -4 50 0 50 0 35 22 -13 18 -16 52
-16 165 0 162 -1 163 -74 119z"/>
<path d="M543 2796 c57 -53 63 -219 9 -278 -27 -32 11 -22 41 10 87 91 46 292
-59 292 -13 0 -12 -5 9 -24z"/>
<path d="M765 2798 c-33 -18 -36 -23 -20 -26 41 -8 45 -20 45 -135 0 -89 -3
-114 -17 -129 -15 -17 -14 -18 42 -18 55 0 57 1 42 18 -13 14 -17 46 -19 162
-3 163 -4 165 -73 128z"/>
<path d="M1156 2789 c27 -28 29 -37 32 -120 3 -73 1 -96 -16 -129 -21 -44 -18
-48 16 -24 48 33 72 129 52 204 -14 50 -59 100 -91 100 -22 0 -22 -1 7 -31z"/>
<path d="M1372 2798 l-34 -21 31 -13 31 -13 0 -108 c0 -82 -4 -114 -16 -131
-15 -22 -15 -22 35 -22 47 0 64 10 41 25 -6 4 -10 61 -10 140 0 73 -3 140 -6
149 -8 22 -33 20 -72 -6z"/>
<path d="M1753 2800 c36 -28 50 -79 45 -165 -2 -57 -8 -81 -26 -104 -23 -32
-16 -39 19 -21 33 18 59 83 59 150 0 98 -38 160 -99 160 l-24 0 26 -20z"/>
<path d="M2976 2789 c27 -28 29 -37 32 -120 3 -75 1 -95 -17 -129 -22 -43 -18
-49 17 -24 37 26 56 73 56 144 0 93 -41 160 -98 160 -18 0 -16 -3 10 -31z"/>
<path d="M3191 2798 c-33 -22 -33 -22 -10 -30 35 -13 39 -25 39 -133 0 -75 -4
-106 -16 -123 -15 -22 -15 -22 35 -22 47 0 64 10 41 25 -6 4 -10 61 -10 140 0
73 -3 140 -6 149 -8 22 -33 20 -73 -6z"/>
<path d="M3569 2804 c34 -24 51 -74 51 -152 0 -48 -6 -79 -20 -107 -23 -44
-21 -52 9 -33 35 21 61 87 61 152 0 92 -41 156 -99 156 l-25 0 23 -16z"/>
<path d="M3795 2798 l-40 -21 33 -9 32 -9 0 -119 c0 -68 -4 -121 -10 -125 -24
-15 -6 -25 41 -25 47 0 50 2 38 16 -10 12 -15 60 -19 163 -6 164 -7 166 -75
129z"/>
<path d="M4184 2793 c33 -33 41 -61 41 -148 0 -54 -5 -78 -22 -107 -26 -43
-10 -53 25 -15 68 72 69 214 1 271 -17 14 -40 26 -51 26 -19 0 -19 -2 6 -27z"/>
<path d="M4400 2797 c-30 -19 -32 -22 -15 -25 41 -8 45 -20 45 -135 0 -89 -3
-114 -17 -129 -15 -17 -14 -18 42 -18 55 0 57 1 42 18 -13 14 -17 46 -19 162
-3 137 -4 145 -23 147 -11 1 -36 -8 -55 -20z"/>
<path d="M410 2782 c-28 -29 -50 -86 -50 -132 0 -70 53 -160 94 -160 13 0 11
8 -11 42 -25 36 -28 51 -28 122 0 66 4 88 22 119 26 44 13 48 -27 9z"/>
<path d="M1025 2788 c-72 -57 -75 -211 -4 -277 12 -11 31 -21 41 -21 15 0 15
4 -7 36 -30 44 -39 87 -33 164 3 41 11 70 26 90 26 35 16 39 -23 8z"/>
<path d="M1622 2780 c-40 -40 -56 -111 -41 -182 13 -59 54 -108 90 -108 l22 0
-20 23 c-36 39 -43 64 -43 144 0 59 5 87 20 116 24 45 12 48 -28 7z"/>
<path d="M2845 2788 c-36 -28 -55 -76 -55 -137 0 -67 25 -128 61 -146 44 -23
53 -18 25 15 -45 54 -49 204 -7 260 25 35 15 39 -24 8z"/>
<path d="M3440 2780 c-39 -42 -54 -108 -39 -178 13 -62 53 -112 90 -112 l22 0
-20 23 c-36 39 -44 66 -45 140 0 72 11 119 31 132 6 3 11 10 11 16 0 18 -22 9
-50 -21z"/>
<path d="M4061 2794 c-75 -53 -80 -219 -8 -280 44 -37 61 -31 32 12 -43 63
-46 182 -5 251 21 37 16 41 -19 17z"/>
<path d="M243 2072 c49 -51 55 -202 12 -269 -22 -33 0 -29 35 5 28 29 50 86
50 132 0 75 -54 160 -101 160 -23 0 -23 0 4 -28z"/>
<path d="M460 2077 c-30 -19 -32 -22 -15 -25 41 -8 45 -21 45 -131 0 -80 -4
-112 -16 -129 -15 -22 -15 -22 42 -22 55 0 56 1 41 18 -14 15 -17 42 -17 149
0 72 -3 138 -6 147 -8 21 -32 19 -74 -7z"/>
<path d="M839 2084 c34 -24 51 -74 51 -152 0 -48 -6 -79 -20 -107 -22 -44 -21
-51 9 -35 35 18 61 82 61 150 0 98 -38 160 -99 160 l-25 0 23 -16z"/>
<path d="M1065 2078 l-40 -21 33 -9 32 -9 0 -116 c0 -94 -3 -120 -17 -135 -15
-17 -14 -18 40 -18 52 0 76 12 45 22 -9 3 -14 47 -18 154 -6 167 -6 169 -75
132z"/>
<path d="M1453 2076 c51 -48 61 -188 18 -261 -25 -44 -7 -48 32 -7 87 90 45
292 -60 292 -12 0 -9 -6 10 -24z"/>
<path d="M1675 2078 c-33 -18 -36 -23 -20 -26 41 -8 45 -20 45 -135 0 -89 -3
-114 -17 -129 -15 -17 -14 -18 42 -18 55 0 57 1 42 18 -13 14 -17 46 -19 162
-3 163 -4 165 -73 128z"/>
<path d="M2674 2070 c31 -37 40 -80 34 -165 -3 -47 -10 -73 -26 -95 -23 -31
-16 -38 20 -19 51 27 76 173 42 245 -19 39 -49 64 -77 64 -17 0 -16 -3 7 -30z"/>
<path d="M2885 2078 l-40 -21 33 -9 32 -9 0 -116 c0 -94 -3 -120 -17 -135 -15
-17 -14 -18 42 -18 52 0 56 1 44 16 -10 12 -15 60 -19 163 -6 164 -7 166 -75
129z"/>
<path d="M3273 2076 c51 -48 61 -188 18 -261 -25 -43 -7 -48 31 -7 45 48 59
126 38 204 -12 41 -61 88 -92 88 -20 0 -19 -1 5 -24z"/>
<path d="M3490 2077 c-30 -19 -32 -22 -15 -25 41 -8 45 -20 45 -135 0 -89 -3
-114 -17 -129 -15 -17 -14 -18 42 -18 55 0 57 1 42 18 -13 14 -17 46 -19 162
-3 137 -4 145 -23 147 -11 1 -36 -8 -55 -20z"/>
<path d="M3877 2078 c36 -40 43 -65 43 -145 0 -59 -5 -87 -20 -116 -23 -42
-15 -47 24 -16 34 27 60 114 51 172 -13 76 -53 127 -99 127 -19 0 -19 -1 1
-22z"/>
<path d="M4101 2078 c-33 -22 -33 -22 -10 -30 35 -13 39 -25 39 -135 0 -77 -4
-105 -15 -117 -23 -23 -19 -26 42 -26 54 0 55 1 40 18 -14 15 -17 41 -17 143
0 68 -3 134 -6 147 -8 28 -29 28 -73 0z"/>
<path d="M4488 2077 c46 -49 58 -182 22 -252 -23 -44 -21 -52 9 -33 35 21 61
87 61 152 0 88 -41 156 -94 156 -19 0 -19 -1 2 -23z"/>
<path d="M115 2068 c-36 -28 -55 -76 -55 -140 0 -63 30 -130 66 -146 41 -19
45 -14 19 24 -30 44 -39 87 -33 164 3 41 11 70 26 90 26 35 16 39 -23 8z"/>
<path d="M712 2060 c-83 -83 -44 -290 54 -290 16 0 15 3 -4 23 -31 33 -42 71
-42 148 0 50 6 81 20 109 24 48 13 51 -28 10z"/>
<path d="M1331 2074 c-51 -36 -73 -127 -50 -208 12 -43 58 -96 83 -96 13 0 11
8 -11 42 -25 36 -28 51 -28 122 0 66 4 88 22 119 24 40 20 46 -16 21z"/>
<path d="M2532 2060 c-40 -40 -56 -111 -41 -182 13 -59 54 -108 90 -108 l22 0
-20 23 c-36 39 -43 64 -43 144 0 59 5 87 20 116 24 45 12 48 -28 7z"/>
<path d="M3151 2074 c-75 -53 -80 -219 -8 -280 44 -37 61 -31 32 11 -43 64
-45 183 -5 253 21 36 16 40 -19 16z"/>
<path d="M3755 2068 c-36 -28 -55 -75 -55 -137 0 -67 25 -128 61 -146 42 -22
56 -18 31 8 -46 49 -58 182 -22 252 11 21 18 40 16 42 -1 2 -15 -7 -31 -19z"/>
<path d="M4368 2080 c-80 -47 -84 -239 -6 -294 12 -9 31 -16 42 -16 19 0 19 1
-1 23 -36 39 -45 68 -46 142 0 55 5 82 21 114 22 42 20 48 -10 31z"/>
<path d="M460 1357 c-29 -19 -32 -22 -15 -25 41 -8 45 -21 45 -131 0 -80 -4
-112 -16 -129 -15 -22 -15 -22 42 -22 55 0 56 1 41 18 -14 15 -17 42 -17 149
0 72 -3 138 -6 147 -8 22 -33 20 -74 -7z"/>
<path d="M848 1358 c31 -34 42 -72 42 -147 0 -47 -6 -78 -20 -106 -22 -44 -21
-51 9 -35 76 40 83 243 10 294 -13 9 -32 16 -43 16 -19 0 -19 -1 2 -22z"/>
<path d="M1065 1358 l-40 -21 33 -9 32 -9 0 -116 c0 -94 -3 -120 -17 -135 -15
-17 -14 -18 42 -18 52 0 56 1 44 16 -10 12 -15 60 -19 163 -6 164 -7 166 -75
129z"/>
<path d="M3886 1349 c27 -28 29 -37 32 -120 3 -73 1 -96 -16 -129 -23 -47 -12
-52 28 -12 49 49 60 162 24 234 -17 32 -51 58 -78 58 -18 0 -16 -3 10 -31z"/>
<path d="M4101 1358 c-33 -22 -33 -22 -10 -30 35 -13 39 -25 39 -133 0 -75 -4
-106 -16 -123 -15 -22 -15 -22 35 -22 47 0 64 10 41 25 -6 4 -10 59 -10 133 0
70 -3 137 -6 150 -8 28 -29 28 -73 0z"/>
<path d="M712 1340 c-40 -40 -56 -111 -41 -182 13 -59 54 -108 90 -108 l22 0
-21 23 c-32 34 -42 71 -42 151 0 61 4 79 25 110 31 45 10 49 -33 6z"/>
<path d="M3755 1348 c-36 -28 -55 -76 -55 -137 0 -87 44 -161 96 -161 13 0 11
6 -10 30 -45 54 -49 204 -7 260 25 35 15 39 -24 8z"/>
<path d="M848 638 c31 -34 42 -72 42 -147 0 -47 -6 -78 -20 -106 -22 -44 -21
-51 9 -35 76 40 83 243 10 294 -13 9 -32 16 -43 16 -19 0 -19 -1 2 -22z"/>
<path d="M1065 638 l-40 -21 33 -9 32 -9 0 -119 c0 -68 -4 -121 -10 -125 -24
-15 -6 -25 41 -25 47 0 50 2 38 16 -10 12 -15 60 -19 163 -6 164 -7 166 -75
129z"/>
<path d="M1453 636 c51 -48 61 -188 18 -261 -25 -44 -7 -48 32 -7 87 90 45
292 -60 292 -12 0 -9 -6 10 -24z"/>
<path d="M1675 638 c-33 -18 -36 -23 -20 -26 41 -8 45 -20 45 -135 0 -89 -3
-114 -17 -129 -15 -17 -14 -18 35 -18 51 0 62 6 42 26 -5 5 -11 75 -12 154 -3
163 -4 165 -73 128z"/>
<path d="M2063 632 c49 -51 55 -202 12 -269 -18 -27 -9 -30 23 -7 37 26 56 73
56 144 0 93 -41 160 -98 160 -18 0 -17 -3 7 -28z"/>
<path d="M2281 638 c-33 -22 -33 -22 -10 -30 35 -13 39 -25 39 -133 0 -75 -4
-106 -16 -123 -15 -22 -15 -22 35 -22 47 0 64 10 41 25 -6 4 -10 61 -10 140 0
73 -3 140 -6 149 -8 22 -33 20 -73 -6z"/>
<path d="M2674 630 c31 -37 40 -80 34 -165 -3 -47 -10 -73 -26 -95 -23 -31
-16 -38 20 -19 51 27 76 173 42 245 -19 39 -49 64 -77 64 -17 0 -16 -3 7 -30z"/>
<path d="M2885 638 l-40 -21 33 -9 32 -9 0 -119 c0 -68 -4 -121 -10 -125 -24
-15 -6 -25 41 -25 47 0 50 2 38 16 -10 12 -15 60 -19 163 -6 164 -7 166 -75
129z"/>
<path d="M3273 636 c51 -48 61 -188 18 -261 -25 -43 -7 -48 31 -7 45 48 59
126 38 204 -12 41 -61 88 -92 88 -20 0 -19 -1 5 -24z"/>
<path d="M3490 637 c-30 -19 -32 -22 -15 -25 41 -8 45 -20 45 -135 0 -89 -3
-114 -17 -129 -15 -17 -14 -18 42 -18 55 0 57 1 42 18 -13 14 -17 46 -19 162
-3 137 -4 145 -23 147 -11 1 -36 -8 -55 -20z"/>
<path d="M3886 629 c27 -28 29 -37 32 -120 3 -75 1 -95 -17 -129 -23 -45 -17
-50 22 -19 53 41 68 167 31 241 -17 32 -51 58 -78 58 -18 0 -16 -3 10 -31z"/>
<path d="M712 620 c-83 -83 -44 -290 54 -290 16 0 15 2 -3 23 -36 39 -43 64
-43 144 0 59 5 87 20 116 24 45 12 48 -28 7z"/>
<path d="M1331 634 c-32 -23 -61 -90 -61 -144 0 -79 52 -160 102 -160 14 0 13
4 -8 27 -32 34 -39 62 -39 148 0 54 5 78 22 108 24 40 20 46 -16 21z"/>
<path d="M1935 628 c-94 -74 -59 -298 47 -298 6 0 2 11 -10 23 -46 49 -58 182
-22 252 11 21 18 40 16 42 -1 2 -15 -7 -31 -19z"/>
<path d="M2532 620 c-40 -40 -56 -111 -41 -182 13 -59 54 -108 90 -108 l22 0
-20 23 c-36 39 -43 64 -43 144 0 59 5 87 20 116 24 45 12 48 -28 7z"/>
<path d="M3151 634 c-32 -23 -61 -90 -61 -144 0 -54 29 -121 61 -144 40 -27
50 -19 24 19 -43 64 -45 183 -5 253 21 36 16 40 -19 16z"/>
<path d="M3755 628 c-36 -28 -55 -75 -55 -137 0 -88 44 -161 96 -161 15 0 14
3 -4 23 -46 49 -58 182 -22 252 11 21 18 40 16 42 -1 2 -15 -7 -31 -19z"/>
</g>
</svg>
