<svg id="svg" version="1.1" xmlns="http://www.w3.org/2000/svg" xmlns:xlink="http://www.w3.org/1999/xlink" width="400" height="400" viewBox="0, 0, 400,400"><g id="svgg"><path id="path0" d="M225.662 127.823 L 221.323 138.839 216.062 137.466 C 198.460 132.871,176.029 137.138,162.285 147.695 C 131.282 171.508,129.180 245.324,158.670 274.631 L 164.940 280.862 159.670 294.034 C 156.771 301.278,154.400 307.398,154.400 307.633 C 154.400 307.868,157.665 307.957,161.656 307.830 L 168.912 307.600 173.056 296.964 C 176.713 287.577,177.388 286.379,178.800 286.770 C 213.480 296.369,244.829 280.981,255.095 249.320 C 268.248 208.757,258.925 163.333,233.703 145.088 C 233.540 144.969,235.790 138.915,238.703 131.634 C 245.214 115.361,245.379 116.799,237.000 116.803 L 230.000 116.806 225.662 127.823 M208.842 154.064 C 211.899 154.759,214.400 155.504,214.400 155.719 C 214.400 155.934,205.367 178.855,194.327 206.655 C 183.286 234.455,173.917 258.058,173.506 259.106 C 170.812 265.980,161.220 244.073,159.148 226.313 C 153.362 176.713,174.338 146.216,208.842 154.064 M233.224 174.832 C 244.501 198.129,241.694 242.390,227.835 259.831 C 219.511 270.306,198.576 275.646,186.623 270.343 L 184.046 269.200 205.000 216.506 L 225.953 163.813 228.226 166.506 C 229.475 167.988,231.725 171.735,233.224 174.832 " stroke="none" fill="#000000" fill-rule="evenodd"></path></g></svg>